<svg width="129" height="112" viewBox="0 0 129 112" fill="none" xmlns="http://www.w3.org/2000/svg">
<g filter="url(#filter0_f_6_162)">
<circle cx="64.5" cy="64.5" r="33.5" fill="url(#paint0_linear_6_162)"/>
</g>
<g filter="url(#filter1_ddii_6_162)">
<ellipse cx="64.5" cy="65.0339" rx="31.5" ry="32.0339" fill="url(#paint1_linear_6_162)" shape-rendering="crispEdges"/>
<path d="M94.9322 65.0339C94.9322 82.153 81.2904 96 64.5 96C47.7096 96 34.0678 82.153 34.0678 65.0339C34.0678 47.9148 47.7096 34.0678 64.5 34.0678C81.2904 34.0678 94.9322 47.9148 94.9322 65.0339Z" stroke="url(#paint2_linear_6_162)" stroke-width="2.13559" shape-rendering="crispEdges"/>
</g>
<g style="mix-blend-mode:overlay" filter="url(#filter2_bf_6_162)">
<circle cx="64" cy="65" r="29" fill="url(#paint3_linear_6_162)"/>
</g>
<path d="M73.3125 62.5938H66.2812V55.5625C66.2812 54.6997 65.5815 54 64.7188 54H63.1562C62.2935 54 61.5938 54.6997 61.5938 55.5625V62.5938H54.5625C53.6997 62.5938 53 63.2935 53 64.1562V65.7188C53 66.5815 53.6997 67.2812 54.5625 67.2812H61.5938V74.3125C61.5938 75.1753 62.2935 75.875 63.1562 75.875H64.7188C65.5815 75.875 66.2812 75.1753 66.2812 74.3125V67.2812H73.3125C74.1753 67.2812 74.875 66.5815 74.875 65.7188V64.1562C74.875 63.2935 74.1753 62.5938 73.3125 62.5938Z" fill="#2D1D68"/>
<defs>
<filter id="filter0_f_6_162" x="29.931" y="29.931" width="69.1379" height="69.1379" filterUnits="userSpaceOnUse" color-interpolation-filters="sRGB">
<feFlood flood-opacity="0" result="BackgroundImageFix"/>
<feBlend mode="normal" in="SourceGraphic" in2="BackgroundImageFix" result="shape"/>
<feGaussianBlur stdDeviation="0.534483" result="effect1_foregroundBlur_6_162"/>
</filter>
<filter id="filter1_ddii_6_162" x="0.966102" y="0.966102" width="127.068" height="128.136" filterUnits="userSpaceOnUse" color-interpolation-filters="sRGB">
<feFlood flood-opacity="0" result="BackgroundImageFix"/>
<feColorMatrix in="SourceAlpha" type="matrix" values="0 0 0 0 0 0 0 0 0 0 0 0 0 0 0 0 0 0 127 0" result="hardAlpha"/>
<feOffset dx="10.678" dy="10.678"/>
<feGaussianBlur stdDeviation="10.678"/>
<feComposite in2="hardAlpha" operator="out"/>
<feColorMatrix type="matrix" values="0 0 0 0 0.0509804 0 0 0 0 0.0784314 0 0 0 0 0.192157 0 0 0 0.5 0"/>
<feBlend mode="normal" in2="BackgroundImageFix" result="effect1_dropShadow_6_162"/>
<feColorMatrix in="SourceAlpha" type="matrix" values="0 0 0 0 0 0 0 0 0 0 0 0 0 0 0 0 0 0 127 0" result="hardAlpha"/>
<feOffset dx="-10.678" dy="-10.678"/>
<feGaussianBlur stdDeviation="10.678"/>
<feComposite in2="hardAlpha" operator="out"/>
<feColorMatrix type="matrix" values="0 0 0 0 1 0 0 0 0 1 0 0 0 0 1 0 0 0 0.23 0"/>
<feBlend mode="overlay" in2="effect1_dropShadow_6_162" result="effect2_dropShadow_6_162"/>
<feBlend mode="normal" in="SourceGraphic" in2="effect2_dropShadow_6_162" result="shape"/>
<feColorMatrix in="SourceAlpha" type="matrix" values="0 0 0 0 0 0 0 0 0 0 0 0 0 0 0 0 0 0 127 0" result="hardAlpha"/>
<feOffset dx="1" dy="1"/>
<feGaussianBlur stdDeviation="0.75"/>
<feComposite in2="hardAlpha" operator="arithmetic" k2="-1" k3="1"/>
<feColorMatrix type="matrix" values="0 0 0 0 1 0 0 0 0 1 0 0 0 0 1 0 0 0 1 0"/>
<feBlend mode="normal" in2="shape" result="effect3_innerShadow_6_162"/>
<feColorMatrix in="SourceAlpha" type="matrix" values="0 0 0 0 0 0 0 0 0 0 0 0 0 0 0 0 0 0 127 0" result="hardAlpha"/>
<feOffset dx="1" dy="1"/>
<feGaussianBlur stdDeviation="0.75"/>
<feComposite in2="hardAlpha" operator="arithmetic" k2="-1" k3="1"/>
<feColorMatrix type="matrix" values="0 0 0 0 1 0 0 0 0 1 0 0 0 0 1 0 0 0 1 0"/>
<feBlend mode="normal" in2="effect3_innerShadow_6_162" result="effect4_innerShadow_6_162"/>
</filter>
<filter id="filter2_bf_6_162" x="31" y="32" width="66" height="66" filterUnits="userSpaceOnUse" color-interpolation-filters="sRGB">
<feFlood flood-opacity="0" result="BackgroundImageFix"/>
<feGaussianBlur in="BackgroundImageFix" stdDeviation="2"/>
<feComposite in2="SourceAlpha" operator="in" result="effect1_backgroundBlur_6_162"/>
<feBlend mode="normal" in="SourceGraphic" in2="effect1_backgroundBlur_6_162" result="shape"/>
<feGaussianBlur stdDeviation="0.462687" result="effect2_foregroundBlur_6_162"/>
</filter>
<linearGradient id="paint0_linear_6_162" x1="44.8254" y1="41.5789" x2="96.195" y2="77.7279" gradientUnits="userSpaceOnUse">
<stop/>
<stop offset="1" stop-color="white" stop-opacity="0.46"/>
</linearGradient>
<linearGradient id="paint1_linear_6_162" x1="46" y1="43.116" x2="94.8374" y2="76.9103" gradientUnits="userSpaceOnUse">
<stop stop-color="#F5F5F9"/>
<stop offset="1" stop-color="#DADFE7" stop-opacity="0.46"/>
</linearGradient>
<linearGradient id="paint2_linear_6_162" x1="64.5" y1="33" x2="64.5" y2="97.0678" gradientUnits="userSpaceOnUse">
<stop stop-color="white"/>
<stop offset="1" stop-color="#AEAEAE" stop-opacity="0"/>
</linearGradient>
<linearGradient id="paint3_linear_6_162" x1="46.9683" y1="45.1579" x2="91.4375" y2="76.451" gradientUnits="userSpaceOnUse">
<stop/>
<stop offset="1" stop-color="white" stop-opacity="0.46"/>
</linearGradient>
</defs>
</svg>
